<?xml version="1.0" encoding="UTF-8" standalone="no"?>
<!-- Created with Inkscape (http://www.inkscape.org/) -->

<svg
   xmlns:dc="http://purl.org/dc/elements/1.1/"
   xmlns:cc="http://creativecommons.org/ns#"
   xmlns:rdf="http://www.w3.org/1999/02/22-rdf-syntax-ns#"
   xmlns:svg="http://www.w3.org/2000/svg"
   xmlns="http://www.w3.org/2000/svg"
   xmlns:sodipodi="http://sodipodi.sourceforge.net/DTD/sodipodi-0.dtd"
   xmlns:inkscape="http://www.inkscape.org/namespaces/inkscape"
   width="256"
   height="256"
   viewBox="0 0 67.733332 67.733335"
   version="1.1"
   id="svg8"
   inkscape:version="0.92.1 r15371"
   sodipodi:docname="icon.svg"
   inkscape:export-filename="C:\Users\Kelvy\Documents\GitHub\CaquiTimer\Graphics\icon.png"
   inkscape:export-xdpi="96"
   inkscape:export-ydpi="96">
  <defs
     id="defs2" />
  <sodipodi:namedview
     id="base"
     pagecolor="#ffffff"
     bordercolor="#666666"
     borderopacity="1.0"
     inkscape:pageopacity="0.0"
     inkscape:pageshadow="2"
     inkscape:zoom="0.7"
     inkscape:cx="183.68381"
     inkscape:cy="59.516067"
     inkscape:document-units="px"
     inkscape:current-layer="layer1"
     showgrid="false"
     units="px"
     inkscape:window-width="1920"
     inkscape:window-height="1017"
     inkscape:window-x="-8"
     inkscape:window-y="-8"
     inkscape:window-maximized="1" />
  <metadata
     id="metadata5">
    <rdf:RDF>
      <cc:Work
         rdf:about="">
        <dc:format>image/svg+xml</dc:format>
        <dc:type
           rdf:resource="http://purl.org/dc/dcmitype/StillImage" />
        <dc:title></dc:title>
      </cc:Work>
    </rdf:RDF>
  </metadata>
  <g
     inkscape:label="Camada 1"
     inkscape:groupmode="layer"
     id="layer1"
     transform="translate(0,-229.26666)">
    <g
       id="g4510"
       transform="matrix(1.2981402,0,0,1.2981402,-10.120428,-87.096969)">
      <path
         sodipodi:nodetypes="ccccc"
         inkscape:connector-curvature="0"
         id="path4496"
         d="m 32.544935,259.76934 c -1.177682,-4.66104 0.43687,-10.48871 3.067338,-12.31779 l 2.039321,-0.0969 c -3.772776,3.41792 -4.108146,7.82461 -2.688799,12.41466 z"
         style="fill:#008000;stroke:#00ff00;stroke-width:0.39687499;stroke-linecap:butt;stroke-linejoin:miter;stroke-miterlimit:4;stroke-dasharray:none;stroke-opacity:1" />
      <path
         sodipodi:nodetypes="sssssss"
         inkscape:connector-curvature="0"
         id="path4485"
         d="m 53.836042,273.04575 c -0.902527,10.07087 -9.947649,19.20744 -19.969377,19.21342 -9.979484,0.006 -19.018275,-9.07769 -19.969378,-19.21342 -0.473109,-5.04184 0.713258,-8.44198 4.040851,-11.87425 3.645182,-3.75986 10.63544,-1.38605 16.400997,-1.38605 6.41145,0 13.251118,-2.19555 16.904885,2.32341 2.631334,3.25441 2.988563,6.51208 2.592022,10.93689 z"
         style="opacity:1;fill:#800000;fill-opacity:1;stroke:#ff0000;stroke-width:0.39687499;stroke-linecap:round;stroke-linejoin:miter;stroke-miterlimit:4;stroke-dasharray:none;stroke-opacity:1" />
      <path
         sodipodi:nodetypes="cccc"
         inkscape:connector-curvature="0"
         id="path4488"
         d="m 18.331845,263.83258 c 4.339817,-3.67614 6.165324,-4.47286 9.490343,-4.50804 2.277317,0.29689 5.444723,0.32029 7.140609,0.4448 -9.834616,0.82721 -10.204379,0.99437 -16.630952,4.06324 z"
         style="fill:#008000;stroke:#00ff00;stroke-width:0.39687499;stroke-linecap:butt;stroke-linejoin:miter;stroke-miterlimit:4;stroke-dasharray:none;stroke-opacity:1" />
      <path
         style="fill:#008000;stroke:#00ff00;stroke-width:0.39687499;stroke-linecap:butt;stroke-linejoin:miter;stroke-miterlimit:4;stroke-dasharray:none;stroke-opacity:1"
         d="m 49.175887,263.83258 c -4.339817,-3.67614 -6.165324,-4.47286 -9.490343,-4.50804 -2.277317,0.29689 -5.444723,0.32029 -7.140609,0.4448 9.834616,0.82721 10.204379,0.99437 16.630952,4.06324 z"
         id="path4490"
         inkscape:connector-curvature="0"
         sodipodi:nodetypes="cccc" />
      <path
         sodipodi:nodetypes="cccc"
         inkscape:connector-curvature="0"
         id="path4492"
         d="m 22.684501,267.43331 c 0.821073,-2.34211 3.361753,-6.02668 7.884451,-7.24969 l 4.393845,-0.41428 c -4.376586,0.83981 -10.654769,4.33752 -12.278296,7.66397 z"
         style="fill:#008000;stroke:#00ff00;stroke-width:0.39687499;stroke-linecap:butt;stroke-linejoin:miter;stroke-miterlimit:4;stroke-dasharray:none;stroke-opacity:1" />
      <path
         style="fill:#008000;stroke:#00ff00;stroke-width:0.39687499;stroke-linecap:butt;stroke-linejoin:miter;stroke-miterlimit:4;stroke-dasharray:none;stroke-opacity:1"
         d="m 44.823231,267.43331 c -0.821073,-2.34211 -3.361753,-6.02668 -7.884451,-7.24969 l -4.393845,-0.41428 c 4.376586,0.83981 10.654769,4.33752 12.278296,7.66397 z"
         id="path4494"
         inkscape:connector-curvature="0"
         sodipodi:nodetypes="cccc" />
      <ellipse
         transform="rotate(-9.4317733)"
         ry="4.1392174"
         rx="2.5537241"
         cy="273.09262"
         cx="5.8683448"
         id="path4498"
         style="opacity:1;fill:#ff0000;fill-opacity:1;stroke:none;stroke-width:0.39687499;stroke-linecap:round;stroke-linejoin:miter;stroke-miterlimit:4;stroke-dasharray:none;stroke-opacity:1" />
      <path
         sodipodi:nodetypes="ccccccc"
         inkscape:connector-curvature="0"
         id="path4500"
         d="m 49.179997,272.80995 c 0.80757,0.90402 1.971191,1.05001 3.057745,0.47691 1.038666,-0.78953 0.709327,-0.18034 0.539284,0.70444 -1.481227,7.67384 -5.370729,11.06753 -7.792293,12.93834 -1.474722,1.13477 -1.062808,0.85936 -0.219313,-0.24627 3.60324,-4.73512 3.551126,-8.79101 4.057735,-13.76391 0.02957,-0.55928 0.06773,-0.46785 0.356842,-0.10951 z"
         style="fill:#ff0000;stroke:none;stroke-width:0.39687499;stroke-linecap:butt;stroke-linejoin:miter;stroke-miterlimit:4;stroke-dasharray:none;stroke-opacity:1" />
    </g>
  </g>
</svg>
